<?xml version="1.0" encoding="UTF-8" standalone="no"?>
<!DOCTYPE svg PUBLIC "-//W3C//DTD SVG 1.1//EN"
 "http://www.w3.org/Graphics/SVG/1.1/DTD/svg11.dtd">
<!-- Generated by graphviz version 14.1.2 (20260126.1125)
 -->
<!-- Title: snakemake_dag Pages: 1 -->
<svg width="408pt" height="1005pt"
 viewBox="0.00 0.00 408.00 1005.00" xmlns="http://www.w3.org/2000/svg" xmlns:xlink="http://www.w3.org/1999/xlink">
<g id="graph0" class="graph" transform="scale(1 1) rotate(0) translate(4 1001)">
<title>snakemake_dag</title>
<polygon fill="white" stroke="none" points="-4,4 -4,-1001 404,-1001 404,4 -4,4"/>
<!-- 0 -->
<g id="node1" class="node">
<title>0</title>
<text xml:space="preserve" text-anchor="start" x="150" y="-76.4" font-family="sans" font-weight="bold" font-size="18.00">all</text>
<text xml:space="preserve" text-anchor="start" x="45" y="-51.45" font-family="sans" font-size="10.00"> </text>
<text xml:space="preserve" text-anchor="start" x="48" y="-51.45" font-family="sans" font-weight="bold" font-size="14.00">↪ input</text>
<text xml:space="preserve" text-anchor="start" x="105" y="-51.45" font-family="sans" font-size="10.00"> </text>
<text xml:space="preserve" text-anchor="start" x="45" y="-30" font-family="monospace" font-size="10.00">results/functional_score_analysis.ipynb</text>
<text xml:space="preserve" text-anchor="start" x="273" y="-10.25" font-family="sans" font-size="10.00"> &#160;</text>
<polygon fill="#57d957" stroke="#57d957" points="39,-67.75 39,-67.75 286,-67.75 286,-67.75 39,-67.75"/>
<polygon fill="#57d957" stroke="#57d957" points="39,-23.75 39,-23.75 286,-23.75 286,-23.75 39,-23.75"/>
<polygon fill="none" stroke="#57d957" stroke-width="2" points="39,-1 39,-98.5 285,-98.5 285,-1 39,-1"/>
</g>
<!-- 1 -->
<g id="node2" class="node">
<title>1</title>
<text xml:space="preserve" text-anchor="start" x="48" y="-275.65" font-family="sans" font-weight="bold" font-size="18.00">run_analysis_notebook</text>
<text xml:space="preserve" text-anchor="start" x="45" y="-250.7" font-family="sans" font-size="10.00"> </text>
<text xml:space="preserve" text-anchor="start" x="48" y="-250.7" font-family="sans" font-weight="bold" font-size="14.00">↪ input</text>
<text xml:space="preserve" text-anchor="start" x="105" y="-250.7" font-family="sans" font-size="10.00"> </text>
<text xml:space="preserve" text-anchor="start" x="45" y="-229.25" font-family="monospace" font-size="10.00">functional_score_analysis.ipynb</text>
<text xml:space="preserve" text-anchor="start" x="45" y="-209.5" font-family="monospace" font-size="10.00">results/func_scores_output</text>
<text xml:space="preserve" text-anchor="start" x="45" y="-189.75" font-family="monospace" font-size="10.00">results/functional_selections_clean.csv</text>
<text xml:space="preserve" text-anchor="start" x="204" y="-167.2" font-family="sans" font-size="10.00"> </text>
<text xml:space="preserve" text-anchor="start" x="207" y="-167.2" font-family="sans" font-weight="bold" font-size="14.00">output →</text>
<text xml:space="preserve" text-anchor="start" x="276" y="-167.2" font-family="sans" font-size="10.00"> </text>
<text xml:space="preserve" text-anchor="start" x="45" y="-145.75" font-family="monospace" font-size="10.00">results/functional_score_analysis.ipynb</text>
<polygon fill="#add957" stroke="#add957" points="39,-267 39,-267 286,-267 286,-267 39,-267"/>
<polygon fill="#add957" stroke="#add957" points="39,-183.5 39,-183.5 286,-183.5 286,-183.5 39,-183.5"/>
<polygon fill="none" stroke="#add957" stroke-width="2" points="39,-136.5 39,-297.75 285,-297.75 285,-136.5 39,-136.5"/>
</g>
<!-- 1&#45;&gt;0 -->
<g id="edge1" class="edge">
<title>1&#45;&gt;0</title>
<path fill="none" stroke="grey" stroke-width="2" d="M162,-135.86C162,-127.85 162,-119.8 162,-112.03"/>
<polygon fill="grey" stroke="grey" stroke-width="2" points="165.5,-112.28 162,-102.28 158.5,-112.28 165.5,-112.28"/>
</g>
<!-- 2 -->
<g id="node3" class="node">
<title>2</title>
<text xml:space="preserve" text-anchor="start" x="131.5" y="-455.15" font-family="sans" font-weight="bold" font-size="18.00">compute_func_scores</text>
<text xml:space="preserve" text-anchor="start" x="121" y="-430.2" font-family="sans" font-size="10.00"> </text>
<text xml:space="preserve" text-anchor="start" x="124" y="-430.2" font-family="sans" font-weight="bold" font-size="14.00">↪ input</text>
<text xml:space="preserve" text-anchor="start" x="181" y="-430.2" font-family="sans" font-size="10.00"> </text>
<text xml:space="preserve" text-anchor="start" x="121" y="-408.75" font-family="monospace" font-size="10.00">results/functional_selections_clean.csv</text>
<text xml:space="preserve" text-anchor="start" x="121" y="-389" font-family="monospace" font-size="10.00">results/mapped_output</text>
<text xml:space="preserve" text-anchor="start" x="280" y="-366.45" font-family="sans" font-size="10.00"> </text>
<text xml:space="preserve" text-anchor="start" x="283" y="-366.45" font-family="sans" font-weight="bold" font-size="14.00">output →</text>
<text xml:space="preserve" text-anchor="start" x="352" y="-366.45" font-family="sans" font-size="10.00"> </text>
<text xml:space="preserve" text-anchor="start" x="121" y="-345" font-family="monospace" font-size="10.00">results/func_scores_output</text>
<polygon fill="#d9ad57" stroke="#d9ad57" points="115,-446.5 115,-446.5 362,-446.5 362,-446.5 115,-446.5"/>
<polygon fill="#d9ad57" stroke="#d9ad57" points="115,-382.75 115,-382.75 362,-382.75 362,-382.75 115,-382.75"/>
<polygon fill="none" stroke="#d9ad57" stroke-width="2" points="115,-335.75 115,-477.25 361,-477.25 361,-335.75 115,-335.75"/>
</g>
<!-- 2&#45;&gt;1 -->
<g id="edge3" class="edge">
<title>2&#45;&gt;1</title>
<path fill="none" stroke="grey" stroke-width="2" d="M209.38,-334.93C206.15,-326.98 202.83,-318.8 199.52,-310.63"/>
<polygon fill="grey" stroke="grey" stroke-width="2" points="202.82,-309.45 195.82,-301.5 196.33,-312.08 202.82,-309.45"/>
</g>
<!-- 3 -->
<g id="node4" class="node">
<title>3</title>
<text xml:space="preserve" text-anchor="start" x="196.12" y="-634.65" font-family="sans" font-weight="bold" font-size="18.00">map_mutations</text>
<text xml:space="preserve" text-anchor="start" x="162" y="-609.7" font-family="sans" font-size="10.00"> </text>
<text xml:space="preserve" text-anchor="start" x="165" y="-609.7" font-family="sans" font-weight="bold" font-size="14.00">↪ input</text>
<text xml:space="preserve" text-anchor="start" x="222" y="-609.7" font-family="sans" font-size="10.00"> </text>
<text xml:space="preserve" text-anchor="start" x="162" y="-588.25" font-family="monospace" font-size="10.00">results/merged_output</text>
<text xml:space="preserve" text-anchor="start" x="162" y="-568.5" font-family="monospace" font-size="10.00">site_numbering/site_numbering_map.csv</text>
<text xml:space="preserve" text-anchor="start" x="309" y="-545.95" font-family="sans" font-size="10.00"> </text>
<text xml:space="preserve" text-anchor="start" x="312" y="-545.95" font-family="sans" font-weight="bold" font-size="14.00">output →</text>
<text xml:space="preserve" text-anchor="start" x="381" y="-545.95" font-family="sans" font-size="10.00"> </text>
<text xml:space="preserve" text-anchor="start" x="162" y="-524.5" font-family="monospace" font-size="10.00">results/mapped_output</text>
<polygon fill="#57add9" stroke="#57add9" points="156,-626 156,-626 391,-626 391,-626 156,-626"/>
<polygon fill="#57add9" stroke="#57add9" points="156,-562.25 156,-562.25 391,-562.25 391,-562.25 156,-562.25"/>
<polygon fill="none" stroke="#57add9" stroke-width="2" points="156,-515.25 156,-656.75 390,-656.75 390,-515.25 156,-515.25"/>
</g>
<!-- 3&#45;&gt;2 -->
<g id="edge4" class="edge">
<title>3&#45;&gt;2</title>
<path fill="none" stroke="grey" stroke-width="2" d="M259.07,-514.34C257.55,-506.63 255.99,-498.73 254.44,-490.88"/>
<polygon fill="grey" stroke="grey" stroke-width="2" points="257.9,-490.31 252.53,-481.18 251.03,-491.67 257.9,-490.31"/>
</g>
<!-- 4 -->
<g id="node5" class="node">
<title>4</title>
<text xml:space="preserve" text-anchor="start" x="198" y="-814.15" font-family="sans" font-weight="bold" font-size="18.00">merge_variants</text>
<text xml:space="preserve" text-anchor="start" x="159" y="-789.2" font-family="sans" font-size="10.00"> </text>
<text xml:space="preserve" text-anchor="start" x="162" y="-789.2" font-family="sans" font-weight="bold" font-size="14.00">↪ input</text>
<text xml:space="preserve" text-anchor="start" x="219" y="-789.2" font-family="sans" font-size="10.00"> </text>
<text xml:space="preserve" text-anchor="start" x="159" y="-767.75" font-family="monospace" font-size="10.00">results/functional_selections_clean.csv</text>
<text xml:space="preserve" text-anchor="start" x="159" y="-748" font-family="monospace" font-size="10.00">variant_counts</text>
<text xml:space="preserve" text-anchor="start" x="318" y="-725.45" font-family="sans" font-size="10.00"> </text>
<text xml:space="preserve" text-anchor="start" x="321" y="-725.45" font-family="sans" font-weight="bold" font-size="14.00">output →</text>
<text xml:space="preserve" text-anchor="start" x="390" y="-725.45" font-family="sans" font-size="10.00"> </text>
<text xml:space="preserve" text-anchor="start" x="159" y="-704" font-family="monospace" font-size="10.00">results/merged_output</text>
<polygon fill="#d95757" stroke="#d95757" points="153,-805.5 153,-805.5 400,-805.5 400,-805.5 153,-805.5"/>
<polygon fill="#d95757" stroke="#d95757" points="153,-741.75 153,-741.75 400,-741.75 400,-741.75 153,-741.75"/>
<polygon fill="none" stroke="#d95757" stroke-width="2" points="153,-694.75 153,-836.25 399,-836.25 399,-694.75 153,-694.75"/>
</g>
<!-- 4&#45;&gt;3 -->
<g id="edge6" class="edge">
<title>4&#45;&gt;3</title>
<path fill="none" stroke="grey" stroke-width="2" d="M274.81,-693.84C274.68,-686.22 274.55,-678.42 274.41,-670.66"/>
<polygon fill="grey" stroke="grey" stroke-width="2" points="277.91,-670.68 274.25,-660.74 270.92,-670.79 277.91,-670.68"/>
</g>
<!-- 5 -->
<g id="node6" class="node">
<title>5</title>
<text xml:space="preserve" text-anchor="start" x="67.75" y="-973.9" font-family="sans" font-weight="bold" font-size="18.00">clean_pairs</text>
<text xml:space="preserve" text-anchor="start" x="7" y="-948.95" font-family="sans" font-size="10.00"> </text>
<text xml:space="preserve" text-anchor="start" x="10" y="-948.95" font-family="sans" font-weight="bold" font-size="14.00">↪ input</text>
<text xml:space="preserve" text-anchor="start" x="67" y="-948.95" font-family="sans" font-size="10.00"> </text>
<text xml:space="preserve" text-anchor="start" x="7" y="-927.5" font-family="monospace" font-size="10.00">variant_counts</text>
<text xml:space="preserve" text-anchor="start" x="166" y="-904.95" font-family="sans" font-size="10.00"> </text>
<text xml:space="preserve" text-anchor="start" x="169" y="-904.95" font-family="sans" font-weight="bold" font-size="14.00">output →</text>
<text xml:space="preserve" text-anchor="start" x="238" y="-904.95" font-family="sans" font-size="10.00"> </text>
<text xml:space="preserve" text-anchor="start" x="7" y="-883.5" font-family="monospace" font-size="10.00">results/functional_selections_clean.csv</text>
<polygon fill="#57d9ad" stroke="#57d9ad" points="1,-965.25 1,-965.25 248,-965.25 248,-965.25 1,-965.25"/>
<polygon fill="#57d9ad" stroke="#57d9ad" points="1,-921.25 1,-921.25 248,-921.25 248,-921.25 1,-921.25"/>
<polygon fill="none" stroke="#57d9ad" stroke-width="2" points="1,-874.25 1,-996 247,-996 247,-874.25 1,-874.25"/>
</g>
<!-- 5&#45;&gt;1 -->
<g id="edge2" class="edge">
<title>5&#45;&gt;1</title>
<path fill="none" stroke="grey" stroke-width="2" d="M109.5,-873.44C107.21,-861.51 105.2,-849.04 104,-837.25 94.3,-742.27 82.24,-432.53 105,-334.75 106.87,-326.73 109.36,-318.63 112.26,-310.63"/>
<polygon fill="grey" stroke="grey" stroke-width="2" points="115.49,-312 115.86,-301.41 108.97,-309.45 115.49,-312"/>
</g>
<!-- 5&#45;&gt;2 -->
<g id="edge5" class="edge">
<title>5&#45;&gt;2</title>
<path fill="none" stroke="grey" stroke-width="2" d="M115.28,-873.46C105.79,-789.4 97.79,-634.32 146,-514.25 149.52,-505.49 154.07,-496.94 159.25,-488.75"/>
<polygon fill="grey" stroke="grey" stroke-width="2" points="162,-490.93 164.71,-480.69 156.2,-487.01 162,-490.93"/>
</g>
<!-- 5&#45;&gt;4 -->
<g id="edge7" class="edge">
<title>5&#45;&gt;4</title>
<path fill="none" stroke="grey" stroke-width="2" d="M178.88,-873.61C186.83,-864.84 195.12,-855.7 203.35,-846.62"/>
<polygon fill="grey" stroke="grey" stroke-width="2" points="205.74,-849.19 209.86,-839.44 200.55,-844.49 205.74,-849.19"/>
</g>
</g>
</svg>
